<svg xmlns="http://www.w3.org/2000/svg" viewBox="0 0 1600 1000" preserveAspectRatio="xMidYMid slice">
  <defs>
    <linearGradient id="sky" x1="0" y1="0" x2="0" y2="1">
      <stop offset="0" stop-color="#dbe9ee"/>
      <stop offset=".45" stop-color="#f5ead4"/>
      <stop offset="1" stop-color="#efe0bd"/>
    </linearGradient>
    <linearGradient id="hillA" x1="0" y1="0" x2="1" y2="1">
      <stop offset="0" stop-color="#6d8758"/>
      <stop offset="1" stop-color="#3e5d42"/>
    </linearGradient>
    <linearGradient id="hillB" x1="0" y1="0" x2="1" y2="1">
      <stop offset="0" stop-color="#9cae79"/>
      <stop offset="1" stop-color="#5f7b4d"/>
    </linearGradient>
    <linearGradient id="field" x1="0" y1="0" x2="0" y2="1">
      <stop offset="0" stop-color="#b7bd83"/>
      <stop offset=".55" stop-color="#8b9a5e"/>
      <stop offset="1" stop-color="#536c45"/>
    </linearGradient>
    <filter id="soften">
      <feGaussianBlur stdDeviation="10"/>
    </filter>
  </defs>

  <rect width="1600" height="1000" fill="url(#sky)"/>
  <circle cx="1260" cy="172" r="118" fill="#fff3c2" opacity=".72" filter="url(#soften)"/>
  <circle cx="1260" cy="172" r="78" fill="#fff8d7" opacity=".84"/>

  <path d="M0 462c188-94 355-130 502-108 153 23 243 103 395 117 158 15 307-46 458-111 96-41 178-68 245-79v719H0V462Z" fill="url(#hillA)" opacity=".9"/>
  <path d="M0 566c153-63 291-82 414-57 151 31 242 123 402 139 174 18 346-57 523-99 99-23 186-28 261-15v466H0V566Z" fill="url(#hillB)" opacity=".94"/>
  <path d="M0 665c170-38 315-44 436-18 156 34 257 112 407 119 174 8 314-70 492-101 96-17 184-15 265 6v329H0V665Z" fill="url(#field)"/>

  <path d="M-40 778c220-60 425-69 616-27 156 34 279 88 442 89 196 1 360-82 622-94" fill="none" stroke="#e5d7a9" stroke-width="4" opacity=".34"/>
  <path d="M-80 878c256-67 487-74 692-21 141 36 265 67 410 60 184-9 354-82 658-94" fill="none" stroke="#f2e4b8" stroke-width="5" opacity=".28"/>

  <g opacity=".28" fill="#314b38">
    <path d="M153 590c24-68 45-68 69 0h-25v70h-19v-70h-25Z"/>
    <path d="M1350 492c30-84 58-84 88 0h-32v85h-24v-85h-32Z"/>
    <path d="M1450 550c21-61 42-61 63 0h-22v67h-19v-67h-22Z"/>
  </g>
</svg>
