<svg xmlns="http://www.w3.org/2000/svg" viewBox="0 0 64 64">
  <rect x="2" y="2" width="60" height="60" rx="14" fill="#f3f4f6" stroke="#d1d5db"/>
  <path d="M9.5 18.5c7.8-3.2 15.3-1.7 22.5 4.5 7.2-6.2 14.7-7.7 22.5-4.5v29.2c-7.8-2.6-15.3-.9-22.5 5.1-7.2-6-14.7-7.7-22.5-5.1V18.5Z" fill="#111827"/>
  <path d="M14 23.1c6.1-1.5 12.1.1 18 4.9 5.9-4.8 11.9-6.4 18-4.9v20.7c-6.1-1.1-12.1.7-18 5.3-5.9-4.6-11.9-6.4-18-5.3V23.1Z" fill="#f3f4f6"/>
  <path d="M32 26.9v22.2" stroke="#111827" stroke-width="2.6" stroke-linecap="round"/>
  <path d="M18.2 29.7c3.7-.2 6.8.7 9.4 2.6M18.2 36.2c3.7-.2 6.8.7 9.4 2.6M45.8 29.7c-3.7-.2-6.8.7-9.4 2.6M45.8 36.2c-3.7-.2-6.8.7-9.4 2.6" stroke="#111827" stroke-width="1.8" stroke-linecap="round" opacity=".9"/>
</svg>
