<svg xmlns="http://www.w3.org/2000/svg" viewBox="0 0 64 64">
  <rect x="2" y="2" width="60" height="60" rx="14" fill="#f3f4f6" stroke="#d1d5db"/>
  <path d="M11 16.8c7.5-1.7 14.5.1 21 5.5 6.5-5.4 13.5-7.2 21-5.5v31.5c-7.5-1.7-14.5.1-21 5.5-6.5-5.4-13.5-7.2-21-5.5V16.8Z" fill="#111827"/>
  <path d="M32 22.3v31.5" stroke="#f3f4f6" stroke-width="3.2" stroke-linecap="round"/>
  <path d="M16.6 25.7c3.7-.3 7.2.7 10.4 3M16.6 33c3.7-.3 7.2.7 10.4 3M16.6 40.3c3.4-.2 6.6.5 9.6 2.2M47.4 25.7c-3.7-.3-7.2.7-10.4 3M47.4 33c-3.7-.3-7.2.7-10.4 3M47.4 40.3c-3.4-.2-6.6.5-9.6 2.2" stroke="#f3f4f6" stroke-width="1.9" stroke-linecap="round" opacity=".58"/>
  <path d="M32 11l1.4 3.6 3.6 1.4-3.6 1.4L32 21l-1.4-3.6L27 16l3.6-1.4L32 11Z" fill="#111827"/>
</svg>
