<svg xmlns="http://www.w3.org/2000/svg" viewBox="0 0 64 64">
  <rect x="2" y="2" width="60" height="60" rx="14" fill="#f3f4f6" stroke="#d1d5db"/>
  <path d="M8.8 19.8c8.4-3 16.1-1.4 23.2 4.8 7.1-6.2 14.8-7.8 23.2-4.8v25.9c-8.4-2.4-16.1-.6-23.2 5.3-7.1-5.9-14.8-7.7-23.2-5.3V19.8Z" fill="#111827"/>
  <path d="M32 24.6v26.4" stroke="#f3f4f6" stroke-width="3.3" stroke-linecap="round"/>
  <path d="M15 27.6c4.5-.8 8.6.2 12.4 3M15 35.1c4.5-.8 8.6.2 12.4 3M49 27.6c-4.5-.8-8.6.2-12.4 3M49 35.1c-4.5-.8-8.6.2-12.4 3" stroke="#f3f4f6" stroke-width="1.9" stroke-linecap="round" opacity=".58"/>
  <path d="M21.8 15.3c3.8.6 7.2 2.3 10.2 5.1 3-2.8 6.4-4.5 10.2-5.1" fill="none" stroke="#111827" stroke-width="3.4" stroke-linecap="round"/>
  <path d="M18 48.6c4.9.2 9.6 2.1 14 5.7 4.4-3.6 9.1-5.5 14-5.7" fill="none" stroke="#111827" stroke-width="3.2" stroke-linecap="round"/>
</svg>
