<svg width="64" height="64" viewBox="0 0 64 64" fill="none" xmlns="http://www.w3.org/2000/svg">
  <defs>
    <linearGradient id="quicksetsMarkGradient" x1="14" y1="10" x2="50" y2="54" gradientUnits="userSpaceOnUse">
      <stop offset="0%" stop-color="#8fd4ff"/>
      <stop offset="55%" stop-color="#4da3ff"/>
      <stop offset="100%" stop-color="#0d6efd"/>
    </linearGradient>
  </defs>
  <rect x="6" y="6" width="52" height="52" rx="18" fill="#171a20"/>
  <g transform="rotate(-18 32 32)">
    <rect x="19" y="29.5" width="26" height="5" rx="2.5" fill="#f6f7fb"/>
    <rect x="15" y="24" width="4" height="16" rx="2" fill="url(#quicksetsMarkGradient)"/>
    <rect x="10.5" y="21" width="3.5" height="22" rx="1.75" fill="url(#quicksetsMarkGradient)" opacity="0.9"/>
    <rect x="45" y="24" width="4" height="16" rx="2" fill="url(#quicksetsMarkGradient)"/>
    <rect x="50" y="21" width="3.5" height="22" rx="1.75" fill="url(#quicksetsMarkGradient)" opacity="0.9"/>
    <rect x="22" y="26.5" width="3" height="11" rx="1.5" fill="#d8ebff" opacity="0.94"/>
    <rect x="39" y="26.5" width="3" height="11" rx="1.5" fill="#d8ebff" opacity="0.94"/>
  </g>
  <path d="M19 48.5c4.1 2.2 8.5 3.3 13.3 3.3 4.7 0 9-1.1 13-3.2" stroke="rgba(143, 212, 255, 0.7)" stroke-width="2.2" stroke-linecap="round"/>
</svg>
