<svg xmlns="http://www.w3.org/2000/svg" viewBox="0 0 64 64">
  <rect x="2" y="2" width="60" height="60" rx="14" fill="#f3f4f6" stroke="#d1d5db"/>
  <path d="M8.7 20.5c8.4-2.8 16.2-1.1 23.3 5 7.1-6.1 14.9-7.8 23.3-5v27.8c-8.4-2.5-16.2-.7-23.3 5.2-7.1-5.9-14.9-7.7-23.3-5.2V20.5Z" fill="#111827"/>
  <path d="M32 25.5v28" stroke="#f3f4f6" stroke-width="3.2" stroke-linecap="round"/>
  <path d="M14.9 27.7c4.3-.7 8.4.2 12.4 2.8M14.9 34.9c4.3-.7 8.4.2 12.4 2.8M14.9 42.1c3.9-.5 7.6.2 11.2 2.1M49.1 27.7c-4.3-.7-8.4.2-12.4 2.8M49.1 34.9c-4.3-.7-8.4.2-12.4 2.8M49.1 42.1c-3.9-.5-7.6.2-11.2 2.1" stroke="#f3f4f6" stroke-width="1.85" stroke-linecap="round" opacity=".56"/>
  <path d="M12 50.7c7.5-1.4 14.2.4 20 5.3 5.8-4.9 12.5-6.7 20-5.3" fill="none" stroke="#111827" stroke-width="3.2" stroke-linecap="round"/>
</svg>
