<svg xmlns="http://www.w3.org/2000/svg" viewBox="0 0 64 64">
  <rect x="2" y="2" width="60" height="60" rx="14" fill="#f3f4f6" stroke="#d1d5db"/>
  <path d="M8.8 18.2c7.9-3.1 15.7-1.7 23.2 4.2v29.8c-7.5-5.1-15.3-6.6-23.2-4.3V18.2Z" fill="#111827"/>
  <path d="M55.2 18.2c-7.9-3.1-15.7-1.7-23.2 4.2v29.8c7.5-5.1 15.3-6.6 23.2-4.3V18.2Z" fill="#111827"/>
  <path d="M32 22.4v29.8" stroke="#f3f4f6" stroke-width="3.4" stroke-linecap="round"/>
  <path d="M36.8 24.8c3.6-1.3 7.4-1.5 11.4-.4M36.8 32.2c3.6-1.3 7.4-1.5 11.4-.4M15.8 25c4-.9 7.8-.5 11.4 1.2M15.8 32.4c4-.9 7.8-.5 11.4 1.2M15.8 39.8c3.7-.7 7.2-.4 10.4 1" stroke="#f3f4f6" stroke-width="1.9" stroke-linecap="round" opacity=".55"/>
  <path d="M42 36.8v12.9l3-2.5 3 2.5V35.4c-2-.3-4-.1-6 .6v.8Z" fill="#f3f4f6" opacity=".9"/>
</svg>
